<svg width="1200" height="900" viewBox="0 0 1200 900" fill="none" xmlns="http://www.w3.org/2000/svg">
  <defs>
    <linearGradient id="bg" x1="96" y1="84" x2="1124" y2="824" gradientUnits="userSpaceOnUse">
      <stop stop-color="#E7D8C8"/>
      <stop offset="0.55" stop-color="#D5B392"/>
      <stop offset="1" stop-color="#9F5B3D"/>
    </linearGradient>
    <radialGradient id="glow" cx="0" cy="0" r="1" gradientUnits="userSpaceOnUse" gradientTransform="translate(860 178) rotate(133.335) scale(554.718 619.14)">
      <stop stop-color="#FFF4E6" stop-opacity="0.8"/>
      <stop offset="1" stop-color="#FFF4E6" stop-opacity="0"/>
    </radialGradient>
  </defs>

  <rect width="1200" height="900" rx="48" fill="url(#bg)"/>
  <rect width="1200" height="900" rx="48" fill="url(#glow)"/>

  <circle cx="600" cy="430" r="188" fill="#FFF5EB" fill-opacity="0.94"/>
  <circle cx="600" cy="430" r="132" fill="#E6C6A3"/>
  <circle cx="600" cy="430" r="118" fill="#FFF5EB"/>
  <path d="M511 365C511 365 548 344 600 344C652 344 689 365 689 365V495C689 495 655 520 600 520C545 520 511 495 511 495V365Z" fill="#C77B4A"/>
  <path d="M557 318C557 318 567 284 600 284C633 284 643 318 643 318" stroke="#6C3D2B" stroke-width="18" stroke-linecap="round"/>
  <rect x="350" y="676" width="500" height="82" rx="41" fill="#5B2F25" fill-opacity="0.18"/>
  <text x="600" y="474" text-anchor="middle" fill="#5B2F25" font-family="Arial, Helvetica, sans-serif" font-size="40" font-weight="700" letter-spacing="4">MENU PHOTO</text>
  <text x="600" y="727" text-anchor="middle" fill="#4D2A22" font-family="Arial, Helvetica, sans-serif" font-size="28" font-weight="700" letter-spacing="5">IMAGE CURRENTLY UNAVAILABLE</text>
</svg>
